<svg width="154" height="63" viewBox="0 0 154 63" fill="none" xmlns="http://www.w3.org/2000/svg">
<path fill-rule="evenodd" clip-rule="evenodd" d="M24.8351 40.7791C25.1954 41.1423 25.455 41.5942 25.588 42.0899C26.3543 45.1987 26.1772 50.1086 25.6029 53.3374C25.4699 53.8331 25.2102 54.285 24.85 54.6481C24.4897 55.0112 24.0414 55.2728 23.5496 55.4069C21.7492 55.9018 14.5031 55.9018 14.5031 55.9018C14.5031 55.9018 7.25706 55.9018 5.45672 55.4069C4.96494 55.2728 4.51659 55.0112 4.15634 54.6481C3.79609 54.285 3.53649 53.8331 3.40342 53.3374C2.63269 50.2421 2.84397 45.3292 3.38854 42.1049C3.52162 41.6092 3.7812 41.1573 4.14146 40.7941C4.50172 40.4311 4.95006 40.1694 5.44184 40.0353C7.24221 39.5404 14.4883 39.5254 14.4883 39.5254C14.4883 39.5254 21.7344 39.5254 23.5348 40.0203C24.0265 40.1544 24.4749 40.4161 24.8351 40.7791ZM17.9545 47.7138L12.4957 51.1255V44.302L17.9545 47.7138Z" fill="white"/>
<path d="M40.8237 51H34.7681V50.1558L37.9673 46.6011C38.4412 46.0636 38.7671 45.6278 38.9448 45.2935C39.1268 44.9549 39.2178 44.6058 39.2178 44.2461C39.2178 43.7637 39.0718 43.368 38.7798 43.0591C38.4878 42.7502 38.0985 42.5957 37.6118 42.5957C37.0278 42.5957 36.5729 42.7629 36.2471 43.0972C35.9255 43.4272 35.7646 43.8885 35.7646 44.481H34.5903C34.5903 43.6304 34.8633 42.9427 35.4092 42.418C35.9593 41.8932 36.6935 41.6309 37.6118 41.6309C38.4709 41.6309 39.1501 41.8573 39.6494 42.3101C40.1488 42.7586 40.3984 43.3574 40.3984 44.1064C40.3984 45.0163 39.8187 46.0996 38.6592 47.3564L36.1836 50.0415H40.8237V51ZM44.1954 45.8076H45.0777C45.6321 45.7992 46.0679 45.6532 46.3853 45.3696C46.7027 45.0861 46.8614 44.7031 46.8614 44.2207C46.8614 43.1374 46.3219 42.5957 45.2428 42.5957C44.7349 42.5957 44.3287 42.7417 44.024 43.0337C43.7235 43.3215 43.5733 43.7044 43.5733 44.1826H42.399C42.399 43.4505 42.6656 42.8433 43.1988 42.3608C43.7362 41.8742 44.4176 41.6309 45.2428 41.6309C46.1145 41.6309 46.7979 41.8615 47.293 42.3228C47.7882 42.784 48.0357 43.4251 48.0357 44.2461C48.0357 44.6481 47.9045 45.0374 47.6422 45.4141C47.384 45.7907 47.0307 46.0721 46.5821 46.2583C47.0899 46.4191 47.4814 46.6857 47.7564 47.0581C48.0357 47.4305 48.1754 47.8854 48.1754 48.4229C48.1754 49.2523 47.9045 49.9103 47.3629 50.397C46.8212 50.8836 46.1166 51.127 45.2491 51.127C44.3816 51.127 43.6749 50.8921 43.129 50.4224C42.5873 49.9526 42.3165 49.3327 42.3165 48.5625H43.4971C43.4971 49.0492 43.6558 49.4385 43.9732 49.7305C44.2906 50.0225 44.7159 50.1685 45.2491 50.1685C45.8162 50.1685 46.2499 50.0203 46.5504 49.7241C46.8508 49.4279 47.0011 49.0026 47.0011 48.4482C47.0011 47.9108 46.836 47.4982 46.5059 47.2104C46.1759 46.9227 45.6998 46.7746 45.0777 46.7661H44.1954V45.8076ZM56.1745 42.418L52.3468 51H51.1154L54.9303 42.7227H49.9284V41.7578H56.1745V42.418ZM60.5808 46.7026L59.4509 47.877V51H58.2322V41.7578H59.4509V46.3281L63.5579 41.7578H65.0305L61.3933 45.8394L65.3162 51H63.8562L60.5808 46.7026ZM74.2621 49.1782C74.2621 48.8608 74.1415 48.6154 73.9003 48.4419C73.6633 48.2642 73.2465 48.1118 72.6498 47.9849C72.0574 47.8579 71.5855 47.7056 71.2343 47.5278C70.8873 47.3501 70.6291 47.1385 70.4599 46.8931C70.2948 46.6476 70.2123 46.3556 70.2123 46.0171C70.2123 45.4543 70.4493 44.9782 70.9232 44.5889C71.4014 44.1995 72.0108 44.0049 72.7514 44.0049C73.53 44.0049 74.1605 44.2059 74.643 44.6079C75.1296 45.0099 75.3729 45.5241 75.3729 46.1504H74.1923C74.1923 45.8288 74.0548 45.5516 73.7797 45.3188C73.5089 45.0861 73.1661 44.9697 72.7514 44.9697C72.324 44.9697 71.9896 45.0628 71.7484 45.249C71.5072 45.4352 71.3866 45.6785 71.3866 45.979C71.3866 46.2625 71.4988 46.4762 71.723 46.6201C71.9473 46.764 72.3515 46.9015 72.9354 47.0327C73.5237 47.1639 73.9997 47.3205 74.3637 47.5024C74.7276 47.6844 74.9963 47.9045 75.1698 48.1626C75.3476 48.4165 75.4364 48.7275 75.4364 49.0957C75.4364 49.7093 75.191 50.2023 74.7001 50.5747C74.2092 50.9429 73.5723 51.127 72.7895 51.127C72.2393 51.127 71.7527 51.0296 71.3295 50.835C70.9063 50.6403 70.5741 50.3695 70.3329 50.0225C70.0959 49.6712 69.9774 49.2925 69.9774 48.8862H71.1518C71.1729 49.2798 71.3295 49.5929 71.6215 49.8257C71.9177 50.0542 72.307 50.1685 72.7895 50.1685C73.2338 50.1685 73.5893 50.0796 73.8559 49.9019C74.1267 49.7199 74.2621 49.4787 74.2621 49.1782ZM81.6264 50.3208C81.1694 50.8582 80.4987 51.127 79.6142 51.127C78.8821 51.127 78.3235 50.9154 77.9385 50.4922C77.5576 50.0648 77.3651 49.4342 77.3608 48.6006V44.1318H78.5351V48.5688C78.5351 49.6099 78.9583 50.1304 79.8047 50.1304C80.7018 50.1304 81.2985 49.7961 81.5947 49.1274V44.1318H82.769V51H81.6518L81.6264 50.3208ZM90.7935 47.6421C90.7935 48.6916 90.5523 49.5358 90.0699 50.1748C89.5875 50.8096 88.94 51.127 88.1275 51.127C87.26 51.127 86.5892 50.8201 86.1153 50.2065L86.0582 51H84.9791V41.25H86.1534V44.8872C86.6273 44.299 87.2811 44.0049 88.1148 44.0049C88.9485 44.0049 89.6023 44.3201 90.0762 44.9507C90.5544 45.5812 90.7935 46.4445 90.7935 47.5405V47.6421ZM89.6192 47.5088C89.6192 46.709 89.4647 46.0911 89.1558 45.6553C88.8469 45.2194 88.4026 45.0015 87.8228 45.0015C87.0484 45.0015 86.4919 45.3612 86.1534 46.0806V49.0513C86.5131 49.7707 87.0738 50.1304 87.8355 50.1304C88.3983 50.1304 88.8363 49.9124 89.1495 49.4766C89.4626 49.0407 89.6192 48.3848 89.6192 47.5088ZM96.6979 49.1782C96.6979 48.8608 96.5773 48.6154 96.3361 48.4419C96.0991 48.2642 95.6823 48.1118 95.0856 47.9849C94.4931 47.8579 94.0213 47.7056 93.6701 47.5278C93.3231 47.3501 93.0649 47.1385 92.8956 46.8931C92.7306 46.6476 92.6481 46.3556 92.6481 46.0171C92.6481 45.4543 92.8851 44.9782 93.359 44.5889C93.8372 44.1995 94.4466 44.0049 95.1871 44.0049C95.9658 44.0049 96.5963 44.2059 97.0788 44.6079C97.5654 45.0099 97.8087 45.5241 97.8087 46.1504H96.6281C96.6281 45.8288 96.4905 45.5516 96.2155 45.3188C95.9446 45.0861 95.6019 44.9697 95.1871 44.9697C94.7597 44.9697 94.4254 45.0628 94.1842 45.249C93.943 45.4352 93.8224 45.6785 93.8224 45.979C93.8224 46.2625 93.9345 46.4762 94.1588 46.6201C94.3831 46.764 94.7872 46.9015 95.3712 47.0327C95.9594 47.1639 96.4355 47.3205 96.7995 47.5024C97.1634 47.6844 97.4321 47.9045 97.6056 48.1626C97.7833 48.4165 97.8722 48.7275 97.8722 49.0957C97.8722 49.7093 97.6268 50.2023 97.1359 50.5747C96.645 50.9429 96.0081 51.127 95.2252 51.127C94.6751 51.127 94.1885 51.0296 93.7653 50.835C93.3421 50.6403 93.0099 50.3695 92.7687 50.0225C92.5317 49.6712 92.4132 49.2925 92.4132 48.8862H93.5875C93.6087 49.2798 93.7653 49.5929 94.0573 49.8257C94.3535 50.0542 94.7428 50.1685 95.2252 50.1685C95.6696 50.1685 96.025 50.0796 96.2916 49.9019C96.5625 49.7199 96.6979 49.4787 96.6979 49.1782ZM102.577 50.1685C102.996 50.1685 103.362 50.0415 103.675 49.7876C103.988 49.5337 104.162 49.2163 104.196 48.8354H105.306C105.285 49.229 105.15 49.6035 104.9 49.959C104.65 50.3145 104.316 50.598 103.897 50.8096C103.482 51.0212 103.042 51.127 102.577 51.127C101.642 51.127 100.897 50.8159 100.342 50.1938C99.7924 49.5675 99.5173 48.7127 99.5173 47.6294V47.4326C99.5173 46.764 99.64 46.1694 99.8855 45.6489C100.131 45.1284 100.482 44.7243 100.939 44.4365C101.4 44.1488 101.944 44.0049 102.571 44.0049C103.341 44.0049 103.98 44.2355 104.488 44.6968C105 45.158 105.273 45.7568 105.306 46.4932H104.196C104.162 46.0488 103.992 45.6849 103.688 45.4014C103.387 45.1136 103.015 44.9697 102.571 44.9697C101.974 44.9697 101.51 45.1855 101.18 45.6172C100.855 46.0446 100.692 46.6646 100.692 47.4771V47.6992C100.692 48.4906 100.855 49.0999 101.18 49.5273C101.506 49.9548 101.972 50.1685 102.577 50.1685ZM110.367 45.1855C110.189 45.1559 109.996 45.1411 109.789 45.1411C109.019 45.1411 108.496 45.4691 108.221 46.125V51H107.047V44.1318H108.189L108.208 44.9253C108.593 44.3117 109.139 44.0049 109.846 44.0049C110.075 44.0049 110.248 44.0345 110.367 44.0938V45.1855ZM113.148 51H111.974V44.1318H113.148V51ZM111.878 42.3101C111.878 42.1196 111.935 41.9588 112.05 41.8276C112.168 41.6965 112.342 41.6309 112.57 41.6309C112.799 41.6309 112.972 41.6965 113.091 41.8276C113.209 41.9588 113.268 42.1196 113.268 42.3101C113.268 42.5005 113.209 42.6592 113.091 42.7861C112.972 42.9131 112.799 42.9766 112.57 42.9766C112.342 42.9766 112.168 42.9131 112.05 42.7861C111.935 42.6592 111.878 42.5005 111.878 42.3101ZM121.268 47.6421C121.268 48.6916 121.026 49.5358 120.544 50.1748C120.061 50.8096 119.414 51.127 118.602 51.127C117.734 51.127 117.063 50.8201 116.589 50.2065L116.532 51H115.453V41.25H116.627V44.8872C117.101 44.299 117.755 44.0049 118.589 44.0049C119.422 44.0049 120.076 44.3201 120.55 44.9507C121.028 45.5812 121.268 46.4445 121.268 47.5405V47.6421ZM120.093 47.5088C120.093 46.709 119.939 46.0911 119.63 45.6553C119.321 45.2194 118.877 45.0015 118.297 45.0015C117.522 45.0015 116.966 45.3612 116.627 46.0806V49.0513C116.987 49.7707 117.548 50.1304 118.31 50.1304C118.872 50.1304 119.31 49.9124 119.623 49.4766C119.937 49.0407 120.093 48.3848 120.093 47.5088ZM126.023 51.127C125.092 51.127 124.335 50.8223 123.751 50.2129C123.167 49.5993 122.875 48.7804 122.875 47.7563V47.5405C122.875 46.8592 123.004 46.252 123.262 45.7188C123.524 45.1813 123.888 44.7624 124.354 44.4619C124.823 44.1572 125.331 44.0049 125.877 44.0049C126.77 44.0049 127.464 44.299 127.959 44.8872C128.454 45.4754 128.702 46.3175 128.702 47.4136V47.9023H124.049C124.066 48.5794 124.263 49.1274 124.639 49.5464C125.02 49.9611 125.502 50.1685 126.086 50.1685C126.501 50.1685 126.852 50.0838 127.14 49.9146C127.428 49.7453 127.68 49.521 127.896 49.2417L128.613 49.8003C128.037 50.6847 127.174 51.127 126.023 51.127ZM125.877 44.9697C125.403 44.9697 125.005 45.1432 124.684 45.4902C124.362 45.833 124.163 46.3154 124.087 46.9375H127.527V46.8486C127.494 46.252 127.333 45.7907 127.045 45.4648C126.757 45.1348 126.368 44.9697 125.877 44.9697ZM133.806 45.1855C133.629 45.1559 133.436 45.1411 133.229 45.1411C132.458 45.1411 131.936 45.4691 131.661 46.125V51H130.486V44.1318H131.629L131.648 44.9253C132.033 44.3117 132.579 44.0049 133.286 44.0049C133.514 44.0049 133.688 44.0345 133.806 44.0938V45.1855ZM139.311 49.1782C139.311 48.8608 139.19 48.6154 138.949 48.4419C138.712 48.2642 138.295 48.1118 137.698 47.9849C137.106 47.8579 136.634 47.7056 136.283 47.5278C135.936 47.3501 135.678 47.1385 135.508 46.8931C135.343 46.6476 135.261 46.3556 135.261 46.0171C135.261 45.4543 135.498 44.9782 135.972 44.5889C136.45 44.1995 137.059 44.0049 137.8 44.0049C138.579 44.0049 139.209 44.2059 139.692 44.6079C140.178 45.0099 140.422 45.5241 140.422 46.1504H139.241C139.241 45.8288 139.103 45.5516 138.828 45.3188C138.557 45.0861 138.215 44.9697 137.8 44.9697C137.373 44.9697 137.038 45.0628 136.797 45.249C136.556 45.4352 136.435 45.6785 136.435 45.979C136.435 46.2625 136.547 46.4762 136.772 46.6201C136.996 46.764 137.4 46.9015 137.984 47.0327C138.572 47.1639 139.048 47.3205 139.412 47.5024C139.776 47.6844 140.045 47.9045 140.218 48.1626C140.396 48.4165 140.485 48.7275 140.485 49.0957C140.485 49.7093 140.24 50.2023 139.749 50.5747C139.258 50.9429 138.621 51.127 137.838 51.127C137.288 51.127 136.801 51.0296 136.378 50.835C135.955 50.6403 135.623 50.3695 135.382 50.0225C135.145 49.6712 135.026 49.2925 135.026 48.8862H136.2C136.222 49.2798 136.378 49.5929 136.67 49.8257C136.966 50.0542 137.356 50.1685 137.838 50.1685C138.282 50.1685 138.638 50.0796 138.904 49.9019C139.175 49.7199 139.311 49.4787 139.311 49.1782Z" fill="white"/>
<path d="M10.9009 2.95801H6.55908V15H4.78711V2.95801H0.45459V1.49219H10.9009V2.95801ZM14.7721 6.17725C15.5328 5.24333 16.5224 4.77637 17.7408 4.77637C19.8622 4.77637 20.9322 5.97314 20.9508 8.3667V15H19.2345V8.35742C19.2283 7.63379 19.0613 7.0988 18.7335 6.75244C18.4119 6.40609 17.9078 6.23291 17.2213 6.23291C16.6646 6.23291 16.176 6.38135 15.7554 6.67822C15.3349 6.9751 15.0071 7.36475 14.7721 7.84717V15H13.0557V0.75H14.7721V6.17725ZM28.1061 15.1855C26.7454 15.1855 25.6383 14.7402 24.7848 13.8496C23.9313 12.9528 23.5046 11.756 23.5046 10.2593V9.94385C23.5046 8.94808 23.6932 8.06055 24.0705 7.28125C24.4539 6.49577 24.9858 5.88346 25.6662 5.44434C26.3527 4.99902 27.0949 4.77637 27.8927 4.77637C29.1977 4.77637 30.2121 5.20622 30.9357 6.06592C31.6593 6.92562 32.0212 8.15641 32.0212 9.7583V10.4727H25.2209C25.2456 11.4622 25.5332 12.2632 26.0837 12.8755C26.6403 13.4816 27.3454 13.7847 28.1989 13.7847C28.805 13.7847 29.3184 13.661 29.7389 13.4136C30.1595 13.1662 30.5275 12.8384 30.8429 12.4302L31.8913 13.2466C31.0501 14.5392 29.7884 15.1855 28.1061 15.1855ZM27.8927 6.18652C27.2 6.18652 26.6186 6.4401 26.1486 6.94727C25.6785 7.44824 25.3879 8.15332 25.2765 9.0625H30.3048V8.93262C30.2554 8.06055 30.0203 7.38639 29.5998 6.91016C29.1792 6.42773 28.6102 6.18652 27.8927 6.18652ZM47.2967 11.4746H41.6375L40.3665 15H38.5296L43.6878 1.49219H45.2464L50.4139 15H48.5863L47.2967 11.4746ZM42.1756 10.0088H46.7679L44.4671 3.69092L42.1756 10.0088ZM54.2479 15H52.5316V4.96191H54.2479V15ZM52.3925 2.29932C52.3925 2.021 52.476 1.78597 52.643 1.59424C52.8161 1.40251 53.0697 1.30664 53.4037 1.30664C53.7377 1.30664 53.9913 1.40251 54.1645 1.59424C54.3376 1.78597 54.4242 2.021 54.4242 2.29932C54.4242 2.57764 54.3376 2.80957 54.1645 2.99512C53.9913 3.18066 53.7377 3.27344 53.4037 3.27344C53.0697 3.27344 52.8161 3.18066 52.643 2.99512C52.476 2.80957 52.3925 2.57764 52.3925 2.29932ZM62.2754 6.50195C62.0156 6.45866 61.7342 6.43701 61.4311 6.43701C60.3055 6.43701 59.5416 6.91634 59.1396 7.875V15H57.4233V4.96191H59.0932L59.1211 6.12158C59.6839 5.22477 60.4818 4.77637 61.5146 4.77637C61.8486 4.77637 62.1022 4.81966 62.2754 4.90625V6.50195ZM72.7798 10.0923C72.7798 11.6261 72.4273 12.86 71.7222 13.7939C71.0171 14.7217 70.0709 15.1855 68.8834 15.1855C67.6155 15.1855 66.6351 14.7371 65.9424 13.8403L65.8589 15H64.2818V0.75H65.9981V6.06592C66.6908 5.20622 67.6464 4.77637 68.8648 4.77637C70.0832 4.77637 71.0388 5.23714 71.7315 6.15869C72.4304 7.08024 72.7798 8.34196 72.7798 9.94385V10.0923ZM71.0635 9.89746C71.0635 8.72852 70.8378 7.82552 70.3863 7.18848C69.9348 6.55143 69.2854 6.23291 68.438 6.23291C67.3062 6.23291 66.4929 6.75863 65.9981 7.81006V12.1519C66.5238 13.2033 67.3433 13.729 68.4566 13.729C69.2792 13.729 69.9193 13.4105 70.377 12.7734C70.8347 12.1364 71.0635 11.1777 71.0635 9.89746ZM80.2228 6.50195C79.963 6.45866 79.6816 6.43701 79.3786 6.43701C78.2529 6.43701 77.4891 6.91634 77.0871 7.875V15H75.3707V4.96191H77.0407L77.0685 6.12158C77.6313 5.22477 78.4292 4.77637 79.4621 4.77637C79.796 4.77637 80.0496 4.81966 80.2228 4.90625V6.50195ZM88.4265 14.0073C87.7585 14.7928 86.7782 15.1855 85.4856 15.1855C84.4156 15.1855 83.5992 14.8763 83.0363 14.2578C82.4797 13.6331 82.1983 12.7116 82.1921 11.4932V4.96191H83.9084V11.4468C83.9084 12.9683 84.5269 13.729 85.7639 13.729C87.0751 13.729 87.9472 13.2404 88.3801 12.2632V4.96191H90.0964V15H88.4636L88.4265 14.0073ZM98.9773 12.3374C98.9773 11.8735 98.8011 11.5148 98.4485 11.2612C98.1022 11.0015 97.493 10.7788 96.6209 10.5933C95.755 10.4077 95.0654 10.1851 94.552 9.92529C94.0449 9.66553 93.6676 9.35628 93.4202 8.99756C93.179 8.63883 93.0584 8.21208 93.0584 7.71729C93.0584 6.89469 93.4047 6.19889 94.0975 5.62988C94.7964 5.06087 95.687 4.77637 96.7693 4.77637C97.9074 4.77637 98.8289 5.07015 99.534 5.65771C100.245 6.24528 100.601 6.99674 100.601 7.91211H98.8753C98.8753 7.44206 98.6743 7.03695 98.2723 6.69678C97.8764 6.35661 97.3755 6.18652 96.7693 6.18652C96.1447 6.18652 95.6561 6.32259 95.3035 6.59473C94.951 6.86686 94.7747 7.22249 94.7747 7.66162C94.7747 8.07601 94.9386 8.38835 95.2664 8.59863C95.5942 8.80892 96.1849 9.00993 97.0384 9.20166C97.8981 9.39339 98.5939 9.62223 99.1258 9.88818C99.6577 10.1541 100.05 10.4757 100.304 10.853C100.564 11.2241 100.694 11.6787 100.694 12.2168C100.694 13.1136 100.335 13.8341 99.6175 14.3784C98.9 14.9165 97.9692 15.1855 96.825 15.1855C96.021 15.1855 95.3097 15.0433 94.6912 14.7588C94.0727 14.4743 93.5872 14.0785 93.2347 13.5713C92.8883 13.0579 92.7151 12.5044 92.7151 11.9106H94.4314C94.4624 12.4858 94.6912 12.9435 95.118 13.2837C95.5509 13.6177 96.1199 13.7847 96.825 13.7847C97.4744 13.7847 97.9939 13.6548 98.3836 13.395C98.7794 13.1291 98.9773 12.7765 98.9773 12.3374ZM105.066 6.17725C105.827 5.24333 106.816 4.77637 108.035 4.77637C110.156 4.77637 111.226 5.97314 111.245 8.3667V15H109.528V8.35742C109.522 7.63379 109.355 7.0988 109.027 6.75244C108.706 6.40609 108.202 6.23291 107.515 6.23291C106.958 6.23291 106.47 6.38135 106.049 6.67822C105.629 6.9751 105.301 7.36475 105.066 7.84717V15H103.349V0.75H105.066V6.17725ZM129.609 13.228C129.152 13.8836 128.512 14.3753 127.689 14.7031C126.873 15.0247 125.92 15.1855 124.832 15.1855C123.731 15.1855 122.753 14.9289 121.9 14.4155C121.046 13.896 120.385 13.16 119.915 12.2075C119.451 11.255 119.213 10.151 119.2 8.89551V7.71729C119.2 5.68245 119.673 4.10531 120.62 2.98584C121.572 1.86637 122.908 1.30664 124.627 1.30664C126.038 1.30664 127.173 1.66846 128.032 2.39209C128.892 3.10954 129.418 4.13005 129.609 5.45361H127.828C127.494 3.66618 126.43 2.77246 124.637 2.77246C123.443 2.77246 122.537 3.19303 121.918 4.03418C121.306 4.86914 120.997 6.08138 120.991 7.6709V8.7749C120.991 10.2902 121.337 11.4963 122.03 12.3931C122.723 13.2837 123.66 13.729 124.841 13.729C125.509 13.729 126.093 13.6548 126.594 13.5063C127.095 13.3579 127.51 13.1074 127.837 12.7549V9.72119H124.711V8.27393H129.609V13.228ZM138.936 14.0073C138.268 14.7928 137.287 15.1855 135.995 15.1855C134.925 15.1855 134.108 14.8763 133.546 14.2578C132.989 13.6331 132.707 12.7116 132.701 11.4932V4.96191H134.418V11.4468C134.418 12.9683 135.036 13.729 136.273 13.729C137.584 13.729 138.456 13.2404 138.889 12.2632V4.96191H140.606V15H138.973L138.936 14.0073ZM146.926 12.4858L149.264 4.96191H151.101L147.065 16.5493C146.44 18.2192 145.448 19.0542 144.087 19.0542L143.762 19.0264L143.122 18.9058V17.5142L143.586 17.5513C144.168 17.5513 144.619 17.4338 144.941 17.1987C145.268 16.9637 145.537 16.5339 145.748 15.9092L146.128 14.8887L142.547 4.96191H144.421L146.926 12.4858Z" fill="white"/>
</svg>
